<svg id="visual" viewBox="0 0 960 540" width="960" height="540" xmlns="http://www.w3.org/2000/svg" xmlns:xlink="http://www.w3.org/1999/xlink" version="1.1"><path d="M0 104L16 100.3C32 96.7 64 89.3 96 84.8C128 80.3 160 78.7 192 76.8C224 75 256 73 288 75.7C320 78.3 352 85.7 384 89.3C416 93 448 93 480 92C512 91 544 89 576 86.3C608 83.7 640 80.3 672 80.3C704 80.3 736 83.7 768 83.7C800 83.7 832 80.3 864 78.7C896 77 928 77 944 77L960 77L960 0L944 0C928 0 896 0 864 0C832 0 800 0 768 0C736 0 704 0 672 0C640 0 608 0 576 0C544 0 512 0 480 0C448 0 416 0 384 0C352 0 320 0 288 0C256 0 224 0 192 0C160 0 128 0 96 0C64 0 32 0 16 0L0 0Z" fill="#3b3a6a"></path><path d="M0 287L16 287C32 287 64 287 96 279.8C128 272.7 160 258.3 192 253C224 247.7 256 251.3 288 260.3C320 269.3 352 283.7 384 285.5C416 287.3 448 276.7 480 271.3C512 266 544 266 576 259.7C608 253.3 640 240.7 672 238.8C704 237 736 246 768 254C800 262 832 269 864 270.8C896 272.7 928 269.3 944 267.7L960 266L960 75L944 75C928 75 896 75 864 76.7C832 78.3 800 81.7 768 81.7C736 81.7 704 78.3 672 78.3C640 78.3 608 81.7 576 84.3C544 87 512 89 480 90C448 91 416 91 384 87.3C352 83.7 320 76.3 288 73.7C256 71 224 73 192 74.8C160 76.7 128 78.3 96 82.8C64 87.3 32 94.7 16 98.3L0 102Z" fill="#494883"></path><path d="M0 417L16 421.5C32 426 64 435 96 437.7C128 440.3 160 436.7 192 432.2C224 427.7 256 422.3 288 424.2C320 426 352 435 384 435C416 435 448 426 480 426C512 426 544 435 576 434C608 433 640 422 672 423.8C704 425.7 736 440.3 768 441.3C800 442.3 832 429.7 864 424.2C896 418.7 928 420.3 944 421.2L960 422L960 264L944 265.7C928 267.3 896 270.7 864 268.8C832 267 800 260 768 252C736 244 704 235 672 236.8C640 238.7 608 251.3 576 257.7C544 264 512 264 480 269.3C448 274.7 416 285.3 384 283.5C352 281.7 320 267.3 288 258.3C256 249.3 224 245.7 192 251C160 256.3 128 270.7 96 277.8C64 285 32 285 16 285L0 285Z" fill="#605d9a"></path><path d="M0 541L16 541C32 541 64 541 96 541C128 541 160 541 192 541C224 541 256 541 288 541C320 541 352 541 384 541C416 541 448 541 480 541C512 541 544 541 576 541C608 541 640 541 672 541C704 541 736 541 768 541C800 541 832 541 864 541C896 541 928 541 944 541L960 541L960 420L944 419.2C928 418.3 896 416.7 864 422.2C832 427.7 800 440.3 768 439.3C736 438.3 704 423.7 672 421.8C640 420 608 431 576 432C544 433 512 424 480 424C448 424 416 433 384 433C352 433 320 424 288 422.2C256 420.3 224 425.7 192 430.2C160 434.7 128 438.3 96 435.7C64 433 32 424 16 419.5L0 415Z" fill="#7d7bae"></path></svg>